<?xml version="1.0" standalone="no"?>
<!DOCTYPE svg PUBLIC "-//W3C//DTD SVG 20010904//EN"
 "http://www.w3.org/TR/2001/REC-SVG-20010904/DTD/svg10.dtd">
<svg version="1.0" xmlns="http://www.w3.org/2000/svg"
 width="1000.000000pt" height="1000.000000pt" viewBox="0 0 1000.000000 1000.000000"
 preserveAspectRatio="xMidYMid meet">
<metadata>
Created by potrace 1.11, written by Peter Selinger 2001-2013
</metadata>
<g transform="translate(0.000000,1000.000000) scale(0.100000,-0.100000)"
fill="#000000" stroke="none">
<path d="M0 5000 l0 -5000 5000 0 5000 0 0 5000 0 5000 -5000 0 -5000 0 0
-5000z m6675 1206 c64 -49 94 -156 64 -233 -36 -96 -154 -140 -255 -94 -101
46 -135 183 -70 281 54 83 183 105 261 46z m-3065 -1731 c65 -33 78 -131 26
-184 l-26 -26 -585 -3 -585 -2 0 -400 0 -400 530 0 c570 0 578 -1 614 -51 18
-26 21 -100 6 -130 -6 -10 -25 -27 -43 -36 -29 -16 -79 -18 -569 -21 l-538 -3
0 -414 0 -415 565 0 c466 0 572 -2 600 -14 72 -30 86 -134 25 -188 l-30 -28
-674 0 -673 0 -34 23 c-19 13 -39 38 -46 57 -9 26 -12 298 -12 1085 -1 1000 0
1052 18 1091 35 77 2 74 744 74 569 0 662 -2 687 -15z m3176 -699 c172 -55
309 -177 395 -351 79 -161 92 -225 93 -455 1 -229 -14 -301 -91 -460 -62 -126
-179 -247 -293 -302 -290 -141 -638 -79 -805 145 l-50 66 -5 -397 c-5 -358 -7
-400 -23 -423 -24 -35 -58 -49 -122 -49 -65 0 -109 31 -125 88 -13 50 -14
2023 0 2073 16 58 51 82 123 87 53 3 66 1 91 -19 42 -33 56 -77 56 -176 l0
-88 34 51 c73 108 209 198 346 229 101 23 274 14 376 -19z m-2654 -12 c16 -16
141 -156 276 -312 193 -221 249 -279 258 -270 7 7 123 141 259 298 136 157
259 293 274 302 77 52 191 -17 191 -114 0 -39 -37 -87 -303 -389 -142 -161
-256 -296 -255 -300 2 -5 120 -140 263 -300 143 -161 272 -310 288 -332 49
-72 26 -162 -50 -193 -46 -20 -90 -12 -130 24 -18 15 -148 160 -289 322 -142
162 -258 295 -259 295 -1 0 -125 -141 -275 -314 -310 -356 -321 -365 -407
-324 -74 35 -94 120 -45 190 15 22 144 171 287 332 143 161 261 296 263 300 1
4 -117 142 -262 308 -146 166 -272 315 -280 332 -20 37 -20 62 -2 106 33 77
136 97 198 39z"/>
<path d="M6393 3565 c-168 -37 -285 -162 -340 -365 -28 -102 -25 -368 5 -473
30 -105 61 -163 122 -231 89 -96 228 -145 377 -132 217 20 350 136 415 363 19
66 22 102 22 238 0 182 -12 244 -71 365 -95 195 -299 285 -530 235z"/>
</g>
</svg>
